<?xml version="1.0" encoding="UTF-8" standalone="no"?>
<!-- Uploaded to: SVG Repo, www.svgrepo.com, Generator: SVG Repo Mixer Tools -->

<svg
   fill="#000000"
   version="1.1"
   id="Capa_1"
   width="800px"
   height="800px"
   viewBox="0 0 66.859 66.858"
   xml:space="preserve"
   sodipodi:docname="pawn-chess-piece-outline-svgrepo-com.svg"
   inkscape:version="1.2.1 (9c6d41e410, 2022-07-14)"
   xmlns:inkscape="http://www.inkscape.org/namespaces/inkscape"
   xmlns:sodipodi="http://sodipodi.sourceforge.net/DTD/sodipodi-0.dtd"
   xmlns="http://www.w3.org/2000/svg"
   xmlns:svg="http://www.w3.org/2000/svg"><defs
   id="defs9" /><sodipodi:namedview
   id="namedview7"
   pagecolor="#ffffff"
   bordercolor="#000000"
   borderopacity="0.25"
   inkscape:showpageshadow="2"
   inkscape:pageopacity="0.0"
   inkscape:pagecheckerboard="0"
   inkscape:deskcolor="#d1d1d1"
   showgrid="false"
   inkscape:zoom="1.0175"
   inkscape:cx="400.4914"
   inkscape:cy="400.4914"
   inkscape:window-width="1920"
   inkscape:window-height="1001"
   inkscape:window-x="-9"
   inkscape:window-y="-9"
   inkscape:window-maximized="1"
   inkscape:current-layer="Capa_1" />
<g
   id="g4">
	<path
   d="M51.677,55.355c0.272-0.428,0.43-0.932,0.43-1.463c0-1.488-1.213-2.701-2.701-2.701h-3.407L42.13,27.973   c0.86-0.485,1.432-1.403,1.432-2.455c0-0.348-0.063-0.688-0.188-1.005c2.492-2.684,3.904-6.252,3.904-9.926   C47.278,6.544,40.735,0,32.692,0S18.104,6.544,18.104,14.587c0,3.634,1.391,7.176,3.84,9.854c-0.141,0.337-0.213,0.702-0.213,1.077   c0,1.024,0.533,1.922,1.363,2.418l-3.457,23.255h-3.278c-1.49,0-2.701,1.213-2.701,2.701c0,0.865,0.406,1.637,1.041,2.131   c-0.666,1.086-1.041,2.494-1.041,3.994c0,1.886,0.594,3.623,1.607,4.762v0.158c0,1.059,0.863,1.921,1.922,1.921h31.391   c0.76,0,1.42-0.445,1.73-1.091c1.731-0.819,2.893-3.069,2.893-5.75C53.2,58.178,52.628,56.484,51.677,55.355z M49.134,63.872   l-0.828,0.21v0.585H17.456v-0.825l-0.363-0.326c-0.756-0.682-1.246-2.053-1.246-3.498c0-1.467,0.479-2.809,1.246-3.5l0.363-0.326   l-0.004-1.786h-1.093c-0.281,0-0.512-0.229-0.512-0.513c0-0.282,0.23-0.512,0.512-0.512h5.168l4.023-27.077l-1.082-0.16   c-0.316-0.048-0.547-0.311-0.547-0.626c0-0.169,0.066-0.329,0.188-0.45l0.783-0.789l-0.799-0.771   c-2.412-2.326-3.797-5.577-3.797-8.92c0-6.835,5.563-12.396,12.396-12.396c6.836,0,12.396,5.562,12.396,12.396   c0,3.371-1.4,6.639-3.842,8.965l-0.781,0.743l0.732,0.792c0.078,0.087,0.174,0.231,0.174,0.431c0,0.326-0.25,0.595-0.578,0.626   l-1.17,0.11l4.521,27.127h5.26c0.281,0,0.512,0.229,0.512,0.512c0,0.203-0.123,0.387-0.309,0.469l-1.961,0.85l1.832,1.096   c0.738,0.44,1.531,1.789,1.531,3.711C51.011,62.135,50.058,63.641,49.134,63.872z M29.3,31.019l-3.098,18.377   c-0.084,0.506-0.521,0.863-1.016,0.863c-0.059,0-0.115-0.006-0.174-0.017c-0.563-0.095-0.941-0.627-0.846-1.188l3.096-18.38   c0.096-0.561,0.627-0.942,1.189-0.844C29.017,29.924,29.394,30.457,29.3,31.019z M30.511,4.492c0.152,0.43-0.074,0.901-0.504,1.053   c-7.484,2.632-6.523,8.936-6.48,9.203c0.076,0.449-0.229,0.876-0.68,0.95c-0.045,0.008-0.092,0.011-0.137,0.011   c-0.396,0-0.746-0.286-0.813-0.689c-0.014-0.078-1.217-7.946,7.561-11.034C29.888,3.833,30.361,4.061,30.511,4.492z"
   id="path2" />
</g>
<path
   style="fill:#000000;stroke-width:37.1452;stroke-miterlimit:0;fill-opacity:1"
   d="m 196.49055,797.17406 c -7.81868,-3.64903 -13.19817,-11.65347 -13.19817,-19.63831 0,-1.44507 -1.54426,-4.60327 -3.51023,-7.17883 -11.60625,-15.20501 -17.86394,-40.75394 -15.25476,-62.28218 1.49789,-12.35898 4.21083,-22.23611 8.46949,-30.83519 l 3.36269,-6.78995 -3.52606,-3.90292 c -8.73866,-9.67265 -11.15818,-23.20667 -6.10674,-34.15909 3.5709,-7.74236 7.89646,-12.21094 15.3964,-15.90549 l 6.52503,-3.21429 23.30521,-0.323 23.30521,-0.32301 0.53819,-2.6254 c 0.296,-1.44397 9.64134,-63.97034 20.76742,-138.9475 l 20.22922,-136.32209 -5.80746,-5.69265 c -4.2361,-4.15233 -6.38175,-7.23167 -7.9299,-11.38061 -2.33359,-6.25387 -2.79261,-15.44644 -1.07937,-21.61582 1.0136,-3.64999 0.92244,-3.85249 -5.0871,-11.30221 C 216.01722,234.06819 206.00852,166.99489 230.52881,108.07861 265.74108,23.472145 360.88278,-19.631714 447.0842,9.9684029 521.96851,35.682417 570.83074,109.44661 564.53746,187.28012 c -2.98939,36.97206 -16.24932,69.67502 -39.94265,98.51064 -6.20306,7.54933 -6.27611,7.70752 -5.14377,11.13851 1.79234,5.43086 0.81105,16.74131 -1.94215,22.3854 -2.35043,4.81844 -8.76738,12.20402 -12.21098,14.05426 -1.73876,0.93422 -0.72505,7.60482 20.8941,137.49197 12.49684,75.08055 22.96606,137.69257 23.26494,139.1378 l 0.54342,2.6277 24.26272,0.32071 24.26271,0.3207 5.59222,2.74619 c 6.96947,3.42249 14.45006,11.43237 16.77137,17.958 2.43247,6.83815 2.2021,16.28966 -0.56134,23.03046 l -2.21599,5.4054 4.21247,6.56136 c 13.17472,20.52101 17.21905,49.6138 10.42763,75.01112 -2.23872,8.37196 -8.15611,20.64903 -13.18948,27.36478 -3.80136,5.07196 -14.542,14.40427 -16.57799,14.40427 -0.41348,0 -1.99709,1.797 -3.51916,3.99334 -1.52205,2.19634 -4.7886,5.18159 -7.25896,6.63391 l -4.49158,2.64056 -193.1204,0.24138 -193.12039,0.24138 z m 381.88783,-26.4612 c 0,-3.18122 0.13716,-3.28327 7.20995,-5.36412 9.11149,-2.68064 14.22058,-7.3567 18.87659,-17.27667 10.65829,-22.70822 7.3596,-55.01543 -7.21484,-70.66196 -1.37719,-1.47848 -7.51349,-5.66911 -13.63624,-9.31249 -6.12274,-3.64338 -11.13227,-6.87128 -11.13227,-7.17311 0,-0.30183 5.38427,-2.96624 11.96502,-5.92092 10.17321,-4.56764 12.1039,-5.79214 12.89227,-8.17669 0.7399,-2.23792 0.535,-3.33004 -1.01416,-5.40541 l -1.94141,-2.60085 -32.82401,-0.25849 -32.824,-0.25847 -26.8511,-161.13811 C 487.11607,388.53962 475.31432,315.5724 475.65807,315.0162 c 0.34376,-0.55621 2.92078,-1.03625 5.72672,-1.06676 7.1593,-0.0778 11.69114,-1.84352 13.28663,-5.17669 1.8983,-3.96577 0.75269,-7.07837 -4.71468,-12.80977 l -4.78296,-5.01395 11.46907,-11.81358 c 21.69568,-22.34736 34.04046,-45.528 40.57321,-76.18705 1.82547,-8.56716 2.19883,-13.4067 2.19883,-28.50123 0,-20.04127 -1.59348,-30.42066 -7.29008,-47.48494 -16.41835,-49.181463 -58.6742,-86.748109 -110.31222,-98.070716 -11.66279,-2.557286 -37.0632,-3.553998 -49.33102,-1.935747 -47.02567,6.203169 -87.79548,33.693689 -111.17916,74.966583 -28.67787,50.61727 -24.20024,114.90379 11.31489,162.45111 2.42251,3.24325 8.83438,10.43503 14.24858,15.98175 l 9.84399,10.08496 -4.50669,4.65706 c -5.67641,5.86584 -6.99617,8.43998 -6.1957,12.0845 0.8813,4.01254 3.55562,5.55966 11.95151,6.91406 l 7.23806,1.16763 -0.53242,3.05625 c -0.29284,1.68094 -10.91707,73.15453 -23.60942,158.83021 -12.69234,85.67567 -23.33167,156.99017 -23.64296,158.47666 l -0.56597,2.7027 h -31.86294 c -30.55255,0 -31.94378,0.0808 -33.82855,1.9656 -2.3878,2.3878 -2.54534,6.57563 -0.33908,9.01352 1.30757,1.44485 3.11098,1.79729 9.19661,1.79729 h 7.57008 l 0.6314,6.04097 c 1.32402,12.66752 1.15345,13.38143 -4.65103,19.46682 -6.08333,6.37773 -8.34742,10.42707 -11.57157,20.69575 -1.98827,6.33249 -2.29988,9.27858 -2.23367,21.11833 0.068,12.16133 0.3835,14.69025 2.71671,21.7763 2.9311,8.90188 8.70854,18.31822 13.33995,21.74207 2.67902,1.9805 3.03102,2.80797 3.03102,7.1253 v 4.88458 h 184.76658 184.76659 z"
   id="path1053"
   transform="matrix(0.08357375,0,0,0.08357375,0,-5e-4)" /><path
   style="fill:#000000;stroke-width:37.1452;stroke-miterlimit:0;fill-opacity:1"
   d="m 265.61747,184.35164 -3.20961,-2.87195 0.1089,-16.53837 c 0.0998,-15.16309 0.36437,-17.51659 3.18105,-28.30191 7.34661,-28.13086 24.41622,-52.401209 48.62107,-69.13168 9.17016,-6.338444 25.36101,-14.641273 34.85208,-17.872492 6.6514,-2.26446 7.15767,-2.303273 10.32735,-0.791757 8.77813,4.185999 6.36488,15.192237 -4.01282,18.30147 -6.42011,1.923513 -24.88706,11.481516 -32.14397,16.63687 -19.92509,14.154906 -32.65754,31.847979 -39.43074,54.793119 -2.27514,7.70734 -2.65715,10.9945 -2.96961,25.55282 -0.37738,17.58299 -0.963,20.19775 -4.92831,22.00447 -3.92337,1.7876 -6.99582,1.26133 -10.39539,-1.78059 z"
   id="path1055"
   transform="matrix(0.08357375,0,0,0.08357375,0,-5e-4)" /><path
   style="fill:#000000;stroke-width:37.1452;stroke-miterlimit:0;fill-opacity:1"
   d="m 296.3145,599.26138 c -1.90653,-0.95243 -4.28259,-3.29243 -5.33054,-5.24964 l -1.89073,-3.53125 18.93323,-112.4248 c 10.41327,-61.83364 19.29474,-113.0947 19.7366,-113.91347 1.75052,-3.2437 5.88985,-6.09503 9.48677,-6.53484 4.76854,-0.58308 9.55516,2.2153 11.78399,6.88919 1.54438,3.2386 1.06565,6.43777 -17.31824,115.73155 -10.92105,64.92661 -19.50673,113.35467 -20.32759,114.65909 -1.74337,2.77037 -7.00906,6.08748 -9.66809,6.09039 -1.08108,9.8e-4 -3.51351,-0.77112 -5.4054,-1.71622 z"
   id="path1057"
   transform="matrix(0.08357375,0,0,0.08357375,0,-5e-4)" /><path
   style="fill:#ffffff;stroke-width:37.1452;stroke-miterlimit:0"
   d="m 209.82801,768.60448 c 0,-3.9167 -0.4635,-4.80293 -4.48165,-8.56903 -5.83579,-5.46975 -11.78903,-17.4862 -13.71803,-27.68947 -4.01865,-21.25625 0.85666,-42.10548 12.7652,-54.59034 l 5.48519,-5.75065 -0.66451,-10.94107 -0.66451,-10.94107 h -7.56233 c -6.07812,0 -7.88156,-0.35275 -9.18886,-1.79729 -2.13385,-2.35787 -2.06435,-5.36424 0.17077,-7.38699 1.59509,-1.44354 5.40464,-1.62653 33.8621,-1.62653 h 32.06481 l 0.56432,-3.1941 c 0.74349,-4.20831 47.68199,-320.45543 47.682,-321.25646 0,-0.33969 -3.42752,-1.11519 -7.61671,-1.72334 -6.21431,-0.90212 -8.03708,-1.58293 -9.89984,-3.69758 -3.18653,-3.61744 -2.20774,-6.52557 4.48749,-13.33303 l 5.51987,-5.61239 -11.75355,-12.07803 C 264.55904,255.48015 251.54732,230.7483 245.62359,200 c -2.7777,-14.41819 -2.39075,-40.09926 0.82927,-55.03686 6.37228,-29.56088 19.20927,-52.987847 40.96214,-74.754197 20.89155,-20.904491 44.53616,-33.835843 73.88181,-40.406305 8.81739,-1.974207 12.86959,-2.28421 29.85798,-2.28421 16.98839,0 21.04059,0.310003 29.85799,2.28421 19.70542,4.412025 37.11211,11.906389 53.68009,23.111692 10.80584,7.308238 30.53895,26.782743 37.50345,37.01196 11.9485,17.54955 20.86171,38.95999 24.54856,58.96806 2.36318,12.82472 2.35483,38.36108 -0.0167,51.10103 -5.65672,30.38789 -20.36432,58.04919 -42.62498,80.16684 -5.54054,5.50494 -10.07371,10.41695 -10.07371,10.91558 0,0.49861 1.8055,2.65481 4.01221,4.79154 4.83758,4.68415 7.00597,8.54369 6.15086,10.94801 -1.32813,3.73435 -3.50659,5.10796 -9.03414,5.6964 -3.05335,0.32505 -6.91351,0.79944 -8.57813,1.05419 l -3.02661,0.4632 27.10158,162.64045 27.10159,162.64045 h 32.68176 c 31.37139,0 32.76059,0.0788 34.64739,1.9656 4.46485,4.46486 1.67183,7.32861 -13.48064,13.82207 -6.60354,2.82988 -11.81449,5.45583 -11.57989,5.83542 0.23461,0.37959 5.67675,3.82953 12.09366,7.66652 13.10559,7.8365 17.86927,12.47146 21.85716,21.26658 9.2014,20.29322 7.07068,49.26003 -4.77644,64.93493 -4.26834,5.64745 -8.93823,8.55188 -16.45478,10.23401 -5.20439,1.16469 -5.34949,1.28855 -5.34949,4.56649 v 3.36931 H 393.61179 209.82801 Z M 308.6165,599.58784 c 1.31951,-0.86458 3.02155,-2.78401 3.78233,-4.2654 0.76077,-1.4814 9.89042,-53.11114 20.28812,-114.73276 17.81958,-105.60716 18.82747,-112.25989 17.55616,-115.88148 -2.66659,-7.59626 -11.96925,-10.74682 -18.54778,-6.28163 -1.89189,1.28411 -3.96444,3.42532 -4.60568,4.75822 -1.85092,3.84744 -38.85509,225.10567 -38.20027,228.41003 1.76501,8.90659 12.00229,13.05453 19.72712,7.99302 z m -29.99097,-414.08415 2.98086,-2.70271 0.34367,-17.19901 c 0.41386,-20.71162 1.99156,-27.64425 9.95294,-43.73465 10.91072,-22.051195 30.29409,-39.511375 55.81319,-50.275469 4.43177,-1.869346 9.74673,-4.117999 11.81101,-4.997009 7.93456,-3.378672 8.90072,-13.999431 1.66248,-18.275165 -3.91916,-2.315104 -6.75867,-2.058563 -15.46385,1.397115 -54.40135,21.595594 -84.75672,63.888008 -84.78638,118.128048 -0.006,11.56183 1.20469,16.0844 5.02308,18.7589 3.62885,2.54175 9.17806,2.05968 12.663,-1.10005 z"
   id="path1395"
   transform="matrix(0.08357375,0,0,0.08357375,0,-5e-4)" /></svg>
